<svg xmlns="http://www.w3.org/2000/svg" viewBox="0 0 6400 2200"><defs><linearGradient id="a" x2="0" y2="1"><stop stop-color="#a4bba0"/><stop offset="1" stop-color="#18392d"/></linearGradient><pattern id="p" width="600" height="2200" patternUnits="userSpaceOnUse"><path fill="#305b43" d="m300 80-240 970h140L30 1510h215v690h90v-690h235L400 1050h140z"/><path fill="#486b4c" d="M30 0h50v2200H30z"/><path fill="#1c4333" d="m550 380-200 950h115l-160 500h215v370h70v-370h200l-155-500h115z"/></pattern></defs><path fill="url(#a)" d="M0 0h6400v2200H0z"/><path fill="url(#p)" opacity=".7" d="M0 0h6400v2200H0z"/><path fill="#b9b79c" opacity=".35" d="m2800 2200 350-880h100l390 880z"/><path fill="#c4d4ad" opacity=".18" d="m3500 0-2200 2200h650L3800 0zm650 0-1400 2200h400L4390 0z"/></svg>
